PathFileType	4	(X/Y/Z)	/Users/itak/Documents/Research/Walk-IL/dataset/trc/00343_00011.trc
DataRate	CameraRate	NumFrames	NumMarkers	Units	OrigDataRate	OrigDataStartFrame	OrigNumFrames
100.000000	100.000000	4	54	mm	100.000000	482	772
Frame#	Time	RPSI			LPSI			L3			STRN			T10			C7			CLAV			RBAK			LBAK			LSHO			LUPA			LAEL			LAOL			LWTS			LWPS			LFRA			LIFD			LHPS			LHTS			RSHO			RUPA			RAEL			RAOL			RWTS			RWPS			RFRA			RIFD			RHTS			RHPS			RBHD			LFHD			RFHD			LBHD			LHIP			RHIP			RASI			LASI			LKNE			LTHI			LANK			LTIP			LTOE			LMT1			LMT5			LHEE			RKNE			RTHI			RTIP			RTOE			RMT1			RMT5			RHEE			RANK			*53			
		X1	Y1	Z1	X2	Y2	Z2	X3	Y3	Z3	X4	Y4	Z4	X5	Y5	Z5	X6	Y6	Z6	X7	Y7	Z7	X8	Y8	Z8	X9	Y9	Z9	X10	Y10	Z10	X11	Y11	Z11	X12	Y12	Z12	X13	Y13	Z13	X14	Y14	Z14	X15	Y15	Z15	X16	Y16	Z16	X17	Y17	Z17	X18	Y18	Z18	X19	Y19	Z19	X20	Y20	Z20	X21	Y21	Z21	X22	Y22	Z22	X23	Y23	Z23	X24	Y24	Z24	X25	Y25	Z25	X26	Y26	Z26	X27	Y27	Z27	X28	Y28	Z28	X29	Y29	Z29	X30	Y30	Z30	X31	Y31	Z31	X32	Y32	Z32	X33	Y33	Z33	X34	Y34	Z34	X35	Y35	Z35	X36	Y36	Z36	X37	Y37	Z37	X38	Y38	Z38	X39	Y39	Z39	X40	Y40	Z40	X41	Y41	Z41	X42	Y42	Z42	X43	Y43	Z43	X44	Y44	Z44	X45	Y45	Z45	X46	Y46	Z46	X47	Y47	Z47	X48	Y48	Z48	X49	Y49	Z49	X50	Y50	Z50	X51	Y51	Z51	X52	Y52	Z52	X53	Y53	Z53	X54	Y54	Z54	

483	4.82	-421.8995971679688	965.323974609375	-351.6588439941406	-307.9548950195312	958.8460693359375	-289.9411926269531	-354.9587707519531	1028.321533203125	-327.1649169921875	-450.2678833007812	1204.737182617188	-103.6878662109375	-328.097900390625	1141.992919921875	-313.5921936035156	-329.3354797363281	1387.930908203125	-258.9576110839844	-418.6039123535156	1330.433471679688	-133.3018951416016	-363.4548034667969	1254.764038085938	-343.0545349121094	-236.9850006103516	1346.788208007812	-218.5301971435547	-235.4239654541016	1360.121704101562	-116.0935211181641	-177.02294921875	1237.58251953125	-89.46928405761719	-194.1911773681641	1039.696044921875	-35.85962295532227	-198.4535980224609	1012.288024902344	-117.1109924316406	-361.9749145507812	879.0440673828125	69.53092956542969	-304.6470642089844	845.2978515625	86.34815979003906	-226.4629821777344	952.7203979492188	6.967689990997314	-437.2212524414062	748.834716796875	121.7901840209961	-335.52197265625	784.93017578125	104.3580169677734	-388.7145080566406	819.137451171875	116.0080337524414	-495.37939453125	1382.27587890625	-300.0863037109375	-539.4105834960938	1323.220092773438	-351.4790649414062	-572.1289672851562	1065.379028320312	-412.7861938476562	-487.3160705566406	1048.323364257812	-375.6420288085938	-634.047607421875	825.0305786132812	-350.2223205566406	-652.81591796875	824.8632202148438	-424.5003662109375	-599.77099609375	998.9638061523438	-416.0863952636719	-643.527587890625	654.2193603515625	-379.6715393066406	-663.2118530273438	723.04248046875	-361.3046264648438	-661.683837890625	738.3451538085938	-429.1461486816406	-439.9520263671875	1601.3486328125	-227.6606750488281	-391.6088562011719	1582.071899414062	-24.86932182312012	-481.7244262695312	1589.919067382812	-70.87290954589844	-300.8825378417969	1589.27294921875	-188.0376129150391	-259.6076965332031	892.45751953125	-167.6255187988281	-561.0304565429688	927.4757080078125	-327.4962158203125	-562.8817749023438	954.9783935546875	-215.0076141357422	-364.9703674316406	922.9547729492188	-84.19730377197266	-362.7378845214844	438.6628723144531	-189.3320922851562	-334.5867004394531	576.363037109375	-166.28173828125	-360.9698181152344	45.49296951293945	-349.5581359863281	-359.72705078125	225.4929656982422	-262.3244018554688	-539.4852294921875	43.51165390014648	-230.4526672363281	-526.5675659179688	27.96659469604492	-310.6806030273438	-433.0008239746094	43.59524536132812	-246.6118927001953	-390.2230224609375	44.34709167480469	-419.0401916503906	-687.5391845703125	506.1034851074219	-160.699462890625	-650.0726928710938	750.7383422851562	-223.1344604492188	-702.3228759765625	386.2906494140625	-159.4676208496094	-766.946533203125	67.04745483398438	-69.86246490478516	-699.04248046875	63.34142684936523	-88.56045532226562	-767.4750366210938	66.23336791992188	-185.3922271728516	-625.5376586914062	90.7138671875	-265.0580444335938	-693.1449584960938	87.85271453857422	-253.2475891113281	nan	nan	nan	
484	4.83	-429.3892211914062	964.6842651367188	-345.4994201660156	-314.3626403808594	958.1986694335938	-285.807373046875	-361.2550659179688	1028.4677734375	-323.2317504882812	-453.6160888671875	1203.69775390625	-97.00031280517578	-334.3220825195312	1140.986083984375	-308.3011474609375	-334.5894775390625	1387.125244140625	-253.5015869140625	-422.3288879394531	1329.481323242188	-126.8357543945312	-369.5000915527344	1254.057495117188	-337.466796875	-241.7882385253906	1345.912353515625	-214.0655517578125	-239.0177154541016	1359.236938476562	-111.7372207641602	-180.4637451171875	1236.662841796875	-85.64734649658203	-197.5593872070312	1038.942993164062	-31.2885856628418	-202.6389923095703	1011.271301269531	-112.3777770996094	-364.7052001953125	878.8318481445312	76.15019226074219	-307.2347717285156	845.035888671875	92.38410186767578	-229.7105560302734	952.263427734375	12.31293487548828	-439.6295166015625	748.7651977539062	129.2784271240234	-338.0908203125	784.7611694335938	110.8498458862305	-391.1084289550781	819.0248413085938	123.0087509155273	-501.0439453125	1381.419189453125	-292.6975402832031	-545.593505859375	1322.537841796875	-343.7527160644531	-578.77880859375	1064.873168945312	-405.4497680664062	-493.7506408691406	1047.6171875	-369.1576538085938	-640.0123291015625	824.2594604492188	-343.1937255859375	-659.5159912109375	824.3760375976562	-417.3277282714844	-606.4481201171875	998.463623046875	-408.7211303710938	-649.6627807617188	653.5335083007812	-373.3360595703125	-669.212890625	722.269287109375	-354.4617309570312	-668.3659057617188	737.8743896484375	-422.2583312988281	-445.217041015625	1600.220092773438	-221.3650207519531	-394.3118286132812	1581.421630859375	-19.24924468994141	-485.0112609863281	1589.156372070312	-64.00380706787109	-305.548095703125	1588.337280273438	-183.2802581787109	-263.6139526367188	891.8317260742188	-164.5129089355469	-567.863525390625	926.6505126953125	-318.9339599609375	-567.8136596679688	954.1007080078125	-206.3255615234375	-367.6102905273438	922.0384521484375	-79.38593292236328	-364.8458862304688	438.1199951171875	-186.3188781738281	-337.0803833007812	575.7708129882812	-163.1136016845703	-361.2958068847656	45.75643920898438	-349.7632751464844	-360.8203430175781	225.3228607177734	-260.9950561523438	-539.6603393554688	43.34287261962891	-230.5227661132812	-526.327880859375	27.9843692779541	-310.578369140625	-433.0869140625	43.60539627075195	-246.5381011962891	-390.6735534667969	44.98037719726562	-419.1817932128906	-690.4179077148438	503.6098022460938	-150.6699066162109	-654.149169921875	749.2482299804688	-213.1405029296875	-707.8704833984375	384.7827758789062	-144.1519775390625	-775.8521728515625	70.78900909423828	-36.71818161010742	-709.0285034179688	65.12600708007812	-58.15853500366211	-781.6373901367188	64.94007873535156	-151.9830017089844	-642.9129028320312	83.23884582519531	-238.6936645507812	-709.925048828125	82.30582427978516	-223.8185119628906	nan	nan	nan	
485	4.84	-436.8134460449219	963.9385986328125	-339.1416931152344	-320.7503662109375	957.473388671875	-281.4136657714844	-367.5610961914062	1028.465087890625	-319.0715942382812	-456.9856262207031	1202.564331054688	-90.25619506835938	-340.4673767089844	1139.934448242188	-302.9754943847656	-339.7628173828125	1386.244750976562	-247.9702911376953	-426.0628356933594	1328.425170898438	-120.2922744750977	-375.4693298339844	1253.256103515625	-331.7210083007812	-246.6716003417969	1344.874267578125	-209.3572692871094	-242.6531677246094	1358.22021484375	-107.231315612793	-183.9100952148438	1235.610595703125	-81.73302459716797	-200.8352508544922	1038.021240234375	-26.78519439697266	-206.7968292236328	1010.143005371094	-107.7191696166992	-367.22119140625	878.2429809570312	82.60612487792969	-309.5803833007812	844.4053955078125	98.20836639404297	-232.8063354492188	951.5739135742188	17.53008460998535	-441.7227783203125	748.2382202148438	136.5068054199219	-340.3699340820312	784.1939086914062	117.0821075439453	-393.2428894042969	818.4794921875	129.7788696289062	-506.6292419433594	1380.464111328125	-285.2526550292969	-551.6758422851562	1321.75146484375	-335.9701232910156	-585.465087890625	1064.25390625	-397.9685974121094	-500.154296875	1046.849487304688	-362.5447692871094	-646.1464233398438	823.42724609375	-335.9360961914062	-666.3860473632812	823.8178100585938	-409.9241638183594	-613.1918334960938	997.8662109375	-401.1855773925781	-656.0247802734375	652.7880249023438	-366.7666931152344	-675.3995361328125	721.429931640625	-347.3746643066406	-675.2388916015625	737.339599609375	-415.1261596679688	-450.4459228515625	1598.975952148438	-215.0169982910156	-397.064697265625	1580.70703125	-13.5522403717041	-488.2960815429688	1588.3115234375	-57.11089324951172	-310.2052917480469	1587.284301757812	-178.4411010742188	-267.7118225097656	891.1251220703125	-161.1371612548828	-574.58056640625	925.6337890625	-310.2318725585938	-572.7481079101562	953.0608520507812	-197.5615234375	-370.3263549804688	921.0361938476562	-74.40374755859375	-366.8917541503906	437.5362854003906	-183.2559051513672	-339.5260314941406	575.1383666992188	-159.8604431152344	-361.7193298339844	46.03913879394531	-349.9895324707031	-361.9017333984375	225.1492767333984	-259.6833801269531	-539.8140258789062	43.17326736450195	-230.5507202148438	-526.1063842773438	27.98936653137207	-310.43359375	-433.1886291503906	43.65291976928711	-246.4880065917969	-391.2388916015625	45.68668746948242	-419.3764038085938	-693.1730346679688	500.8324584960938	-141.3035888671875	-658.0626831054688	747.4186401367188	-203.4525909423828	-713.0152587890625	383.3558349609375	-129.4448394775391	-783.4835205078125	75.39145660400391	-3.906288385391235	-717.8292236328125	67.76563262939453	-27.83060646057129	-794.3772583007812	64.53189849853516	-118.4677886962891	-659.0967407226562	76.6357421875	-211.5859680175781	-725.39208984375	77.63870239257812	-193.8730316162109	nan	nan	nan	
486	4.850000000000001	-444.1805419921875	963.0921020507812	-332.5861511230469	-327.1187744140625	956.6926879882812	-276.7649230957031	-373.9169006347656	1028.254028320312	-314.6204528808594	-460.3742370605469	1201.335693359375	-83.44749450683594	-346.517822265625	1138.854858398438	-297.6368103027344	-344.8587036132812	1385.279541015625	-242.3623199462891	-429.8083190917969	1327.261596679688	-113.6723175048828	-381.3989562988281	1252.33349609375	-325.7906188964844	-251.5974426269531	1343.693481445312	-204.4522399902344	-246.3223724365234	1357.06982421875	-102.5851593017578	-187.3485717773438	1234.427978515625	-77.73635864257812	-204.0186004638672	1036.927734375	-22.33653450012207	-210.9108276367188	1008.903198242188	-103.1261367797852	-369.5284118652344	877.2728271484375	88.89716339111328	-311.69189453125	843.412353515625	103.8299789428711	-235.7411499023438	950.636474609375	22.61135101318359	-443.5177307128906	747.2567138671875	143.4766387939453	-342.3700561523438	783.2330932617188	123.0713577270508	-395.1369934082031	817.5035400390625	136.3172454833984	-512.1491088867188	1379.401977539062	-277.7454223632812	-557.6707153320312	1320.849243164062	-328.1268920898438	-592.1871948242188	1063.514526367188	-390.35009765625	-506.5354309082031	1046.011108398438	-355.8005065917969	-652.4508056640625	822.5299682617188	-328.4401245117188	-673.4139404296875	823.1774291992188	-402.2815856933594	-619.998779296875	997.1616821289062	-393.4850769042969	-662.6099243164062	651.9755249023438	-359.9290161132812	-681.7920532226562	720.52685546875	-340.0287780761719	-682.2994384765625	736.734375	-407.73388671875	-455.6267700195312	1597.617919921875	-208.6118621826172	-399.8641357421875	1579.9248046875	-7.766149044036865	-491.5796508789062	1587.380981445312	-50.19314956665039	-314.8540344238281	1586.115600585938	-173.5149383544922	-271.8993225097656	890.3557739257812	-157.5167846679688	-581.20849609375	924.41845703125	-301.3858032226562	-577.6895141601562	951.8543701171875	-188.6999359130859	-373.1044311523438	919.9596557617188	-69.22860717773438	-368.8465881347656	436.9137878417969	-180.167236328125	-341.9117126464844	574.4661254882812	-156.5493927001953	-362.2510986328125	46.34100723266602	-350.2480773925781	-362.9615783691406	224.9805450439453	-258.4056396484375	-539.9446411132812	43.00732421875	-230.5222625732422	-525.9362182617188	27.991455078125	-310.2559509277344	-433.30517578125	43.74006652832031	-246.4666290283203	-391.9424133300781	46.47647094726562	-419.6276550292969	-695.8348999023438	497.8121643066406	-132.5690002441406	-661.86376953125	745.2489624023438	-194.0720520019531	-717.7935180664062	382.0247497558594	-115.4132919311523	-790.0027465820312	80.96336364746094	28.28993225097656	-725.5418701171875	71.36138916015625	2.206050157546997	-805.6810302734375	65.07270812988281	-85.147216796875	-673.900146484375	70.96837615966797	-183.9122772216797	-739.4180297851562	73.89908599853516	-163.6591033935547	nan	nan	nan	
